<svg width="16" height="18" viewBox="0 0 16 18" fill="none" xmlns="http://www.w3.org/2000/svg">
<mask id="mask0_539_2744" style="mask-type:alpha" maskUnits="userSpaceOnUse" x="0" y="0" width="16" height="18">
<path d="M8.73856 0.19539C8.28699 -0.06513 7.71301 -0.0651301 7.26144 0.19539L0.650553 4.00933C0.245734 4.24288 0 4.65129 0 5.09056V12.9094C0 13.3487 0.245734 13.7571 0.650552 13.9907L3.06172 15.3817C4.03493 14.7632 6.06838 13.3765 6.88839 12.4714C7.72583 11.547 7.12227 10.6974 6.7158 10.3881L4.3375 8.7982C4.3375 8.7982 3.3379 7.93568 4.47989 7.04702L12.0621 2.11278L8.73856 0.19539Z" fill="#C4C4C4"/>
<path d="M12.6409 2.4193C11.54 3.1223 9.50832 4.77091 8.86743 5.34137C8.11506 6.01104 8.35923 7.00801 8.73321 7.25033L11.1824 9.21727C11.1824 9.21727 12.3095 9.88825 11.2705 10.813L3.70617 15.7535L7.26144 17.8046C7.71301 18.0651 8.28699 18.0651 8.73856 17.8046L15.3494 13.9907C15.7543 13.7571 16 13.3487 16 12.9094V5.09056C16 4.65129 15.7543 4.24288 15.3494 4.00934L12.6409 2.4193Z" fill="#C4C4C4"/>
</mask>
<g mask="url(#mask0_539_2744)">
<path d="M16.0161 12.97L7.39668 6.34484L12.3975 2.45117L16.6717 2.26334L16.0161 12.97Z" fill="url(#paint0_linear_539_2744)"/>
</g>
<mask id="mask1_539_2744" style="mask-type:alpha" maskUnits="userSpaceOnUse" x="0" y="0" width="16" height="18">
<path d="M8.73856 0.19539C8.28699 -0.06513 7.71301 -0.0651301 7.26144 0.19539L0.650553 4.00933C0.245734 4.24288 0 4.65129 0 5.09056V12.9094C0 13.3487 0.245734 13.7571 0.650552 13.9907L3.06172 15.3817C4.03493 14.7632 6.06838 13.3765 6.88839 12.4714C7.72583 11.547 7.12227 10.6974 6.7158 10.3881L4.3375 8.7982C4.3375 8.7982 3.30317 7.96759 4.44516 7.07894L12.0621 2.11278L8.73856 0.19539Z" fill="#C4C4C4"/>
<path d="M12.6409 2.4193C11.54 3.1223 9.50832 4.77091 8.86743 5.34137C8.11506 6.01104 8.35923 7.00801 8.73321 7.25033L11.2705 9.2739C11.2705 9.2739 12.0857 9.82655 11.0467 10.7513L3.70617 15.7535L7.26144 17.8046C7.71301 18.0651 8.28699 18.0651 8.73856 17.8046L15.3494 13.9907C15.7543 13.7571 16 13.3487 16 12.9094V5.09056C16 4.65129 15.7543 4.24288 15.3494 4.00934L12.6409 2.4193Z" fill="#C4C4C4"/>
</mask>
<g mask="url(#mask1_539_2744)">
<path d="M-0.277344 5.29163L8.61298 11.4513L3.50799 15.5684L-0.277344 16.0152V5.29163Z" fill="url(#paint1_linear_539_2744)"/>
</g>
<mask id="mask2_539_2744" style="mask-type:alpha" maskUnits="userSpaceOnUse" x="0" y="0" width="16" height="18">
<path d="M8.73856 0.19539C8.28699 -0.06513 7.71301 -0.0651301 7.26144 0.19539L0.650553 4.00933C0.245734 4.24288 0 4.65129 0 5.09056V12.9094C0 13.3487 0.245734 13.7571 0.650552 13.9907L3.06172 15.3817C4.03493 14.7632 6.06838 13.3765 6.88839 12.4714C7.72583 11.547 7.12227 10.6974 6.7158 10.3881L4.3375 8.7982C4.3375 8.7982 3.3379 7.96759 4.47989 7.07894L12.0621 2.11278L8.73856 0.19539Z" fill="#C4C4C4"/>
<path d="M12.6409 2.4193C11.54 3.1223 9.50832 4.77091 8.86743 5.34137C8.11506 6.01104 8.35923 7.00801 8.73321 7.25033L11.2705 9.2739C11.2705 9.2739 12.0857 9.82655 11.0467 10.7513L3.70617 15.7535L7.26144 17.8046C7.71301 18.0651 8.28699 18.0651 8.73856 17.8046L15.3494 13.9907C15.7543 13.7571 16 13.3487 16 12.9094V5.09056C16 4.65129 15.7543 4.24288 15.3494 4.00934L12.6409 2.4193Z" fill="#C4C4C4"/>
</mask>
<g mask="url(#mask2_539_2744)">
<path d="M7.98808 -0.421263L12.2799 2.15851L4.68894 9.02569L-1.63153 5.03626L7.98808 -0.421263Z" fill="url(#paint2_linear_539_2744)"/>
</g>
<mask id="mask3_539_2744" style="mask-type:alpha" maskUnits="userSpaceOnUse" x="0" y="0" width="16" height="18">
<path d="M8.73856 0.19539C8.28699 -0.06513 7.71301 -0.0651301 7.26144 0.19539L0.650553 4.00933C0.245734 4.24288 0 4.65129 0 5.09056V12.9094C0 13.3487 0.245734 13.7571 0.650552 13.9907L3.06172 15.3817C4.03493 14.7632 6.06838 13.3765 6.88839 12.4714C7.72583 11.547 7.12227 10.6974 6.7158 10.3881L4.3375 8.7982C4.3375 8.7982 3.30317 7.96759 4.44516 7.07894L12.0621 2.11278L8.73856 0.19539Z" fill="#C4C4C4"/>
<path d="M12.6409 2.4193C11.54 3.1223 9.50832 4.77091 8.86743 5.34137C8.11506 6.01104 8.35923 7.00801 8.73321 7.25033L11.2705 9.2739C11.2705 9.2739 12.2213 9.95208 11.1824 10.8769L3.70617 15.7535L7.26144 17.8046C7.71301 18.0651 8.28699 18.0651 8.73856 17.8046L15.3494 13.9907C15.7543 13.7571 16 13.3487 16 12.9094V5.09056C16 4.65129 15.7543 4.24288 15.3494 4.00934L12.6409 2.4193Z" fill="#C4C4C4"/>
</mask>
<g mask="url(#mask3_539_2744)">
<path d="M7.72667 18.5741L3.43487 15.9943L11.0258 9.12715L16.5475 13.34L7.72667 18.5741Z" fill="url(#paint3_linear_539_2744)"/>
</g>
<defs>
<linearGradient id="paint0_linear_539_2744" x1="11.578" y1="12.7405" x2="12.1319" y2="2.02857" gradientUnits="userSpaceOnUse">
<stop stop-color="#BE5B26"/>
<stop offset="1" stop-color="#FFC228"/>
</linearGradient>
<linearGradient id="paint1_linear_539_2744" x1="4.16782" y1="5.29163" x2="4.16782" y2="16.0152" gradientUnits="userSpaceOnUse">
<stop stop-color="#055E91"/>
<stop offset="1" stop-color="#2DD5F0"/>
</linearGradient>
<linearGradient id="paint2_linear_539_2744" x1="10.4124" y1="0.174445" x2="2.13489" y2="7.96573" gradientUnits="userSpaceOnUse">
<stop stop-color="#28E2ED"/>
<stop offset="1" stop-color="#00D97E"/>
</linearGradient>
<linearGradient id="paint3_linear_539_2744" x1="5.3024" y1="17.9784" x2="13.5799" y2="10.1871" gradientUnits="userSpaceOnUse">
<stop stop-color="#F8D54E"/>
<stop offset="1" stop-color="#F09337"/>
</linearGradient>
</defs>
</svg>
