<svg width="24" height="24" viewBox="0 0 24 24" fill="none" xmlns="http://www.w3.org/2000/svg">
    <g clip-path="url(#clip0_3526_158600)">
        <path fill-rule="evenodd" clip-rule="evenodd" d="M12 24C18.6274 24 24 18.6274 24 12C24 5.37258 18.6274 0 12 0C5.37258 0 0 5.37258 0 12C0 18.6274 5.37258 24 12 24ZM15.0694 18.6715C18.0037 17.2855 18.9237 14.7259 19.1307 13.7287C18.0579 14.8275 16.8708 15.9411 16.0725 15.1703C16.0725 15.1703 16.0287 11.0555 16.0287 9.36837C16.0287 7.09954 18.1803 5.40868 18.1803 5.40868C16.9969 5.61939 15.5761 6.04081 14.0678 7.52096C13.9317 7.65588 13.8026 7.79778 13.6812 7.94609C13.035 7.45122 12.1974 7.59961 12.1974 7.59961C12.6499 7.84815 13.1018 8.57228 13.1018 9.17176V15.0642C13.1018 15.0642 12.115 15.9322 11.3545 15.9322C11.1831 15.9335 11.0139 15.8938 10.8609 15.8163C10.708 15.7389 10.5758 15.626 10.4753 15.4871C10.4151 15.4085 10.3653 15.3224 10.327 15.2311V7.95128C10.1021 8.13676 9.34241 8.2896 9.34241 7.02832C9.34241 6.24484 9.90702 5.31075 10.9123 4.73797C9.53179 4.94848 8.23886 5.54493 7.18265 6.45851C6.38019 7.15198 5.73839 8.01189 5.30186 8.97848C4.86534 9.94506 4.64456 10.9951 4.65489 12.0556C4.65489 12.0556 5.39014 9.75863 6.31088 9.54643C6.44503 9.5111 6.58558 9.5076 6.72132 9.53622C6.85706 9.56484 6.98423 9.62478 7.0927 9.71126C7.20117 9.79775 7.28792 9.90838 7.34605 10.0343C7.40417 10.1603 7.43206 10.2981 7.42748 10.4368V15.8306C7.42748 16.3774 7.07507 16.4969 6.74936 16.4909C6.52871 16.4754 6.31061 16.4343 6.09943 16.3685C6.77179 17.2785 7.64548 18.0207 8.65222 18.5371C9.65896 19.0534 10.7715 19.33 11.9028 19.3451L13.8912 17.3464L15.0694 18.6715Z" fill="white"/>
    </g>
    <defs>
        <clipPath id="clip0_3526_158600">
            <rect width="24" height="24" fill="white"/>
        </clipPath>
    </defs>
</svg>