<svg width="18" height="14" viewBox="0 0 18 14" fill="none" xmlns="http://www.w3.org/2000/svg">
<path d="M16.6683 0.0071106C17.4038 0.0071106 17.9999 0.574743 17.9999 1.27495C17.9999 4.77601 15.0191 7.61417 11.3419 7.61417H5.69597C3.48971 7.61417 1.70117 5.91128 1.70117 3.81064C1.70117 1.71001 3.4897 0.0071106 5.69597 0.0071106H16.6683Z" fill="url(#paint0_linear_539_2722)"/>
<mask id="mask0_539_2722" style="mask-type:alpha" maskUnits="userSpaceOnUse" x="0" y="0" width="18" height="8">
<path d="M16.5748 0.053894C17.3616 0.053894 17.9995 0.61869 17.9995 1.3154C17.9995 4.79895 14.8103 7.62293 10.8761 7.62293H4.83554C2.47507 7.62293 0.561523 5.92855 0.561523 3.83841C0.561523 1.74828 2.47506 0.053894 4.83553 0.053894H16.5748Z" fill="url(#paint1_linear_539_2722)"/>
</mask>
<g mask="url(#mask0_539_2722)">
<path opacity="0.25" d="M11.7493 5.68934C16.4254 5.44337 17.7488 2.2047 17.8259 0.616119L18.6361 0.769853V4.92067L15.8583 8.14909C12.5402 7.43166 7.07318 5.93532 11.7493 5.68934Z" fill="url(#paint2_linear_539_2722)"/>
</g>
<path d="M12.1195 6.3522C14.3258 6.3522 16.1143 8.0551 16.1143 10.1557C16.1143 12.2564 14.3258 13.9593 12.1195 13.9593H1.3316C0.596178 13.9593 0 13.3916 0 12.6914C0 9.19037 2.98089 6.3522 6.658 6.3522H12.1195Z" fill="url(#paint3_linear_539_2722)"/>
<path d="M15.1607 7.45202C16.734 8.94995 16.734 11.3786 15.1607 12.8765C13.5875 14.3744 11.0367 14.3744 9.46348 12.8765L2.81666 6.54794C1.2434 5.05001 1.2434 2.62138 2.81666 1.12345C4.38992 -0.374483 6.94067 -0.374483 8.51393 1.12345L15.1607 7.45202Z" fill="url(#paint4_linear_539_2722)"/>
<mask id="mask1_539_2722" style="mask-type:alpha" maskUnits="userSpaceOnUse" x="0" y="6" width="18" height="8">
<path d="M1.47353 13.9707C0.686704 13.9707 0.0488559 13.3877 0.0488559 12.6685C0.0488559 9.07258 3.23809 6.1575 7.17221 6.1575H13.2128C15.5733 6.1575 17.4868 7.90655 17.4868 10.0641C17.4868 12.2217 15.5733 13.9707 13.2128 13.9707H1.47353Z" fill="url(#paint5_linear_539_2722)"/>
</mask>
<g mask="url(#mask1_539_2722)">
<path opacity="0.25" d="M6.29904 8.15302C1.62293 8.40692 0.299574 11.7501 0.222411 13.3899L-0.587802 13.2312V8.94648L2.19008 5.61392C5.50812 6.35449 10.9752 7.89911 6.29904 8.15302Z" fill="url(#paint6_linear_539_2722)"/>
</g>
<path opacity="0.2" d="M3.53581 0.578674C3.28029 0.730423 3.03874 0.912018 2.81666 1.12346C1.2434 2.62139 1.2434 5.05002 2.81666 6.54795L9.46347 12.8765C10.3467 13.7175 11.5381 14.0863 12.6917 13.983C12.6612 13.9557 12.631 13.9279 12.6012 13.8995L3.89588 5.61096C2.45354 4.23767 2.33352 2.08214 3.53581 0.578674Z" fill="url(#paint7_linear_539_2722)"/>
<defs>
<linearGradient id="paint0_linear_539_2722" x1="18" y1="3.81063" x2="1.7012" y2="3.81063" gradientUnits="userSpaceOnUse">
<stop stop-color="#5324F8"/>
<stop offset="1" stop-color="#AA61F9"/>
</linearGradient>
<linearGradient id="paint1_linear_539_2722" x1="17.9995" y1="3.8384" x2="0.561557" y2="3.8384" gradientUnits="userSpaceOnUse">
<stop stop-color="#5326D5"/>
<stop offset="1" stop-color="#BD89FF"/>
</linearGradient>
<linearGradient id="paint2_linear_539_2722" x1="17.4208" y1="1.89724" x2="14.5344" y2="6.48295" gradientUnits="userSpaceOnUse">
<stop stop-color="white"/>
<stop offset="1" stop-color="white" stop-opacity="0"/>
</linearGradient>
<linearGradient id="paint3_linear_539_2722" x1="16.1143" y1="10.1557" x2="0" y2="10.1557" gradientUnits="userSpaceOnUse">
<stop stop-color="#5324F8"/>
<stop offset="1" stop-color="#AA61F9"/>
</linearGradient>
<linearGradient id="paint4_linear_539_2722" x1="15.1607" y1="12.8765" x2="3.42181" y2="0.54727" gradientUnits="userSpaceOnUse">
<stop stop-color="#FF9951"/>
<stop offset="1" stop-color="#FF1FAB"/>
</linearGradient>
<linearGradient id="paint5_linear_539_2722" x1="0.0488226" y1="10.0641" x2="17.4868" y2="10.0641" gradientUnits="userSpaceOnUse">
<stop stop-color="#5326D5"/>
<stop offset="1" stop-color="#BD89FF"/>
</linearGradient>
<linearGradient id="paint6_linear_539_2722" x1="0.627525" y1="12.0674" x2="3.64697" y2="7.42026" gradientUnits="userSpaceOnUse">
<stop stop-color="white"/>
<stop offset="1" stop-color="white" stop-opacity="0"/>
</linearGradient>
<linearGradient id="paint7_linear_539_2722" x1="15.1607" y1="12.8765" x2="3.4218" y2="0.547293" gradientUnits="userSpaceOnUse">
<stop stop-color="white" stop-opacity="0"/>
<stop offset="1" stop-color="white"/>
</linearGradient>
</defs>
</svg>
