<svg width="60" height="60" viewBox="0 0 60 60" fill="none" xmlns="http://www.w3.org/2000/svg">
<circle cx="30" cy="30" r="30" fill="#0062FF"/>
<path d="M38.2313 37.3275L44.1495 40.5411C42.707 42.5563 40.8722 44.1684 38.6449 45.3775C36.4389 46.5866 34.0419 47.1911 31.454 47.1911C28.5267 47.1911 25.854 46.4381 23.4358 44.9321C21.0389 43.426 19.1192 41.4108 17.6767 38.8866C16.2555 36.3411 15.5449 33.5305 15.5449 30.4548C15.5449 28.1215 15.9586 25.9472 16.7858 23.9321C17.6131 21.8957 18.748 20.1139 20.1904 18.5866C21.654 17.0381 23.351 15.829 25.2813 14.9593C27.2116 14.0896 29.2692 13.6548 31.454 13.6548C34.0419 13.6548 36.4389 14.2593 38.6449 15.4684C40.8722 16.6775 42.707 18.3002 44.1495 20.3366L38.2313 23.5502C37.3404 22.4896 36.301 21.6836 35.1131 21.1321C33.9252 20.5593 32.7055 20.273 31.454 20.273C29.7146 20.273 28.1343 20.7502 26.7131 21.7048C25.3131 22.6381 24.1995 23.879 23.3722 25.4275C22.5661 26.9548 22.1631 28.6305 22.1631 30.4548C22.1631 32.2578 22.5767 33.9336 23.404 35.4821C24.2313 37.0093 25.3449 38.2396 26.7449 39.173C28.1661 40.1063 29.7358 40.573 31.454 40.573C32.7692 40.573 34.0207 40.276 35.2086 39.6821C36.3964 39.0881 37.404 38.3033 38.2313 37.3275Z" fill="white"/>
</svg>
