<svg width="16" height="17" viewBox="0 0 16 17" fill="none" xmlns="http://www.w3.org/2000/svg">
<path d="M8 2.5H12.6667C13.0203 2.5 13.3594 2.64048 13.6095 2.89052C13.8595 3.14057 14 3.47971 14 3.83333V9.83333C14 10.187 13.8595 10.5261 13.6095 10.7761C13.3594 11.0262 13.0203 11.1667 12.6667 11.1667H8V14.5M8 2.5V14.5M8 2.5H3.33333C2.97971 2.5 2.64057 2.64048 2.39052 2.89052C2.14048 3.14057 2 3.47971 2 3.83333V13.1667C2 13.5203 2.14048 13.8594 2.39052 14.1095C2.64057 14.3595 2.97971 14.5 3.33333 14.5H8" stroke="#808D9E" stroke-width="1.5" stroke-linecap="round" stroke-linejoin="round"/>
</svg>
