<svg width="136" height="143" viewBox="0 0 136 143" fill="none" xmlns="http://www.w3.org/2000/svg">
<g id="Group 2">
<path id="Vector" d="M67.401 127C100.207 127 126.802 100.585 126.802 68C126.802 35.415 100.207 9 67.401 9C34.595 9 8 35.415 8 68C8 100.585 34.595 127 67.401 127Z" fill="#EAEEF9"/>
<g id="Group" filter="url(#filter0_d_510_4203)">
<path id="Vector_2" d="M112.931 60.323V96.396C112.931 103.863 106.79 109.963 99.272 109.963H35.848C28.33 109.963 22.294 103.968 22.188 96.5011C22.188 96.396 22.188 96.396 22.188 96.291V60.323C22.188 60.217 22.188 60.217 22.188 60.112C22.188 59.902 22.188 59.692 22.294 59.481C22.4 59.166 22.506 58.955 22.612 58.64L39.659 26.1431C40.295 24.8811 41.565 24.144 42.942 24.144H92.284C93.66 24.144 94.931 24.8811 95.566 26.1431L112.614 58.64C112.719 58.85 112.825 59.166 112.931 59.481C112.931 59.692 112.931 60.007 112.931 60.323Z" fill="#D3DBEB"/>
</g>
<g id="Group_2" filter="url(#filter1_d_510_4203)">
<path id="Vector_3" d="M80.5311 60.6381H54.8011C53.7421 60.6381 52.7891 59.7971 52.7891 58.6401V23.5131C52.7891 22.4621 53.6361 21.5151 54.8011 21.5151H80.425C81.484 21.5151 82.4371 22.3561 82.4371 23.5131V58.6401C82.4371 59.6921 81.5901 60.6381 80.5311 60.6381Z" fill="#F5F8FF"/>
</g>
<g id="Group_3" filter="url(#filter2_d_510_4203)">
<path id="Vector_4" d="M89.001 68.946H46.3301C44.9541 68.946 43.7891 67.79 43.7891 66.422V32.348C43.7891 30.98 44.9541 29.823 46.3301 29.823H89.001C90.378 29.823 91.5431 30.98 91.5431 32.348V66.422C91.4371 67.79 90.378 68.946 89.001 68.946Z" fill="#F5F8FF"/>
</g>
<g id="Group_4" filter="url(#filter3_d_510_4203)">
<path id="Vector_5" d="M93.8721 78.622H41.459C39.977 78.622 38.7061 77.36 38.7061 75.888V42.339C38.7061 40.866 39.977 39.604 41.459 39.604H93.8721C95.3541 39.604 96.6251 40.866 96.6251 42.339V75.888C96.6251 77.36 95.3541 78.622 93.8721 78.622Z" fill="#F5F8FF"/>
</g>
<g id="Group_5" filter="url(#filter4_d_510_4203)">
<path id="Vector_6" d="M99.1662 87.9821H36.1652C34.4712 87.9821 33.2012 86.6151 33.2012 85.0371V52.0141C33.2012 50.3321 34.5772 49.0701 36.1652 49.0701H99.1662C100.861 49.0701 102.131 50.4371 102.131 52.0141V85.0371C102.131 86.7201 100.861 87.9821 99.1662 87.9821Z" fill="#F5F8FF"/>
</g>
<path id="Vector_7" d="M80.319 62.2159H56.6011C55.9661 62.2159 55.436 61.6899 55.436 61.0589C55.436 60.4279 55.9661 59.9019 56.6011 59.9019H80.319C80.954 59.9019 81.4841 60.4279 81.4841 61.0589C81.4841 61.6899 80.954 62.2159 80.319 62.2159Z" fill="#E6ECF5"/>
<path id="Vector_8" d="M73.437 69.1561H43.471C43.048 69.1561 42.73 68.8411 42.73 68.4201C42.73 68.0001 43.048 67.6841 43.471 67.6841H73.331C73.754 67.6841 74.072 68.0001 74.072 68.4201C74.178 68.7361 73.86 69.1561 73.437 69.1561Z" fill="#E6ECF5"/>
<path id="Vector_9" d="M93.131 69.1561H77.9891C77.5661 69.1561 77.248 68.8411 77.248 68.4201C77.248 68.0001 77.5661 67.6841 77.9891 67.6841H93.0251C93.4491 67.6841 93.7661 68.0001 93.7661 68.4201C93.8721 68.7361 93.554 69.1561 93.131 69.1561Z" fill="#E6ECF5"/>
<g id="Group_6" filter="url(#filter5_d_510_4203)">
<path id="Vector_10" d="M112.931 60.323V100.077C112.931 105.545 108.484 109.963 102.978 109.963H32.142C26.636 109.963 22.188 105.545 22.188 100.077V60.112C22.188 59.902 22.188 59.692 22.294 59.481H44.954C48.342 59.481 51.201 62.216 51.201 65.686C51.201 67.369 51.942 68.947 53.001 70.103C54.165 71.26 55.648 71.891 57.448 71.891H77.778C81.166 71.891 84.025 69.157 84.025 65.686C84.025 64.004 84.766 62.426 85.825 61.269C86.99 60.112 88.472 59.481 90.166 59.481H112.825C112.931 59.692 112.931 60.007 112.931 60.323Z" fill="white"/>
</g>
<g id="Group_7" filter="url(#filter6_d_510_4203)">
<path id="Vector_11" d="M128 34.9619C128 37.1509 127.601 39.2399 126.902 41.2289C124.905 46.9989 120.113 51.5739 114.223 53.2649C112.526 53.7629 110.729 54.0609 108.932 54.0609C98.4493 53.9619 89.8643 45.5059 89.8643 34.9619C89.8643 24.4179 98.4493 15.9629 108.932 15.9629C119.414 15.9629 128 24.5179 128 34.9619Z" fill="#0062FF"/>
</g>
<path id="Vector_12" opacity="0.4" d="M127.002 41.229C125.005 46.999 120.213 51.574 114.323 53.265L101.344 40.334L103.94 33.669L106.136 31.879L108.632 34.266L109.93 28.497L111.927 27.9L113.025 27.303L127.002 41.229Z" fill="url(#paint0_linear_510_4203)"/>
<path id="Vector_13" d="M107.887 42.7809C107.887 42.9799 108.086 43.1789 108.286 43.1789H109.783C109.983 43.1789 110.183 42.9799 110.183 42.7809V41.5869C110.183 41.4879 110.083 41.3879 109.983 41.3879H107.986C107.887 41.3879 107.787 41.4879 107.787 41.5869V42.7809H107.887Z" fill="url(#paint1_linear_510_4203)"/>
<path id="Vector_14" d="M104.193 31.342C102.396 31.342 100.898 32.834 100.898 34.624V39.498C100.898 40.095 101.397 40.593 101.996 40.593H106.489C107.088 40.593 107.587 40.095 107.587 39.498V34.624C107.587 32.734 106.09 31.342 104.193 31.342Z" fill="url(#paint2_linear_510_4203)"/>
<path id="Vector_15" d="M113.677 31.143H110.981C110.882 31.143 110.682 31.242 110.682 31.441V32.834C110.682 33.033 110.482 33.232 110.283 33.232C110.083 33.232 109.883 33.033 109.883 32.834V31.143V29.651H112.579C112.878 29.651 113.078 29.452 113.078 29.153V27.761C113.078 27.462 112.878 27.263 112.579 27.263H109.883V27.064C109.883 26.965 109.783 26.865 109.684 26.865H109.284C109.184 26.865 109.085 26.965 109.085 27.064V31.143H107.387C107.288 31.143 107.188 31.242 107.188 31.342C107.188 31.441 107.188 31.441 107.288 31.441C108.086 32.237 108.486 33.331 108.486 34.425V39.299C108.486 39.598 108.386 39.797 108.286 40.095C108.286 40.195 108.286 40.294 108.386 40.394H108.486H115.773C116.372 40.394 116.772 39.896 116.772 39.399V34.425C116.971 32.635 115.474 31.143 113.677 31.143Z" fill="url(#paint3_linear_510_4203)"/>
<path id="Vector_16" d="M102.872 95.554H82.3311C81.5891 95.554 81.0601 95.029 81.0601 94.292C81.0601 93.556 81.5891 93.03 82.3311 93.03H102.766C103.507 93.03 104.037 93.556 104.037 94.292C104.143 94.923 103.507 95.554 102.872 95.554Z" fill="#E6ECF5"/>
<path id="Vector_17" d="M93.66 101.865H82.3311C81.5891 101.865 81.0601 101.339 81.0601 100.602C81.0601 99.8659 81.5891 99.3398 82.3311 99.3398H93.66C94.401 99.3398 94.9311 99.8659 94.9311 100.602C95.0371 101.234 94.401 101.865 93.66 101.865Z" fill="#E6ECF5"/>
<g id="Group_8" filter="url(#filter7_d_510_4203)">
<path id="Vector_18" d="M54.6951 93.8721V116.168C54.6951 117.324 53.7421 118.376 52.4711 118.376H19.0121C17.8471 118.376 16.7881 117.43 16.7881 116.168V93.8721C16.7881 92.7151 17.7411 91.6631 19.0121 91.6631H52.5771C53.7421 91.6631 54.6951 92.7151 54.6951 93.8721Z" fill="#EC3A8D"/>
</g>
<path id="Vector_19" d="M54.6951 112.907V116.168C54.6951 117.324 53.7421 118.376 52.4711 118.376H19.0121C17.8471 118.376 16.7881 117.43 16.7881 116.168V112.907L31.824 103.863L35.7421 101.444L39.6591 103.863L54.6951 112.907Z" fill="#F2539D"/>
<path id="Vector_20" d="M54.6951 93.8721V94.9231L39.7651 103.863L35.8481 106.282L31.9301 103.863L16.7881 94.9231V93.8721C16.7881 92.7151 17.7411 91.6631 19.0121 91.6631H52.5771C53.7421 91.6631 54.6951 92.7151 54.6951 93.8721Z" fill="#FF61AA"/>
<path id="Vector_21" d="M45.1662 110.804H43.1542C42.6242 110.804 42.2012 111.119 41.9892 111.54C41.8832 111.54 41.8832 111.435 41.7772 111.435C41.2482 111.33 40.6132 111.435 40.1892 111.856C39.8712 112.066 39.5542 112.276 39.4482 112.171C39.3422 112.171 39.2362 112.066 39.1302 111.856L38.2832 112.381C38.6012 112.907 39.0242 113.118 39.2362 113.118C39.3422 113.118 39.3422 113.118 39.4482 113.118C39.8712 113.118 40.2952 112.907 40.8242 112.487C41.0362 112.276 41.3542 112.171 41.5652 112.276C41.6712 112.276 41.7772 112.381 41.8832 112.592V113.118C41.8832 113.118 41.8832 113.118 41.7772 113.118C41.2482 113.012 40.6132 113.118 40.1892 113.538C39.8712 113.749 39.5542 113.959 39.4482 113.854C39.3422 113.854 39.2362 113.749 39.1302 113.538L38.2832 114.064C38.6012 114.59 39.0242 114.8 39.2362 114.8C39.3422 114.8 39.3422 114.8 39.4482 114.8C39.8712 114.8 40.2952 114.59 40.8242 114.169C41.0362 113.959 41.3542 113.854 41.5652 113.959C41.6712 113.959 41.7772 114.064 41.8832 114.274H41.9892C42.0952 114.8 42.6242 115.221 43.1542 115.221H45.1662C45.9072 115.221 46.4362 114.695 46.4362 113.959V111.961C46.4362 111.435 45.9072 110.804 45.1662 110.804ZM45.4832 114.169C45.4832 114.274 45.3772 114.38 45.2712 114.38H43.2602C43.1542 114.38 43.0482 114.274 43.0482 114.169V112.171C43.0482 112.066 43.1542 111.961 43.2602 111.961H45.2712C45.3772 111.961 45.4832 112.066 45.4832 112.171V114.169Z" fill="#FFA8D1"/>
</g>
<defs>
<filter id="filter0_d_510_4203" x="0.187988" y="13.144" width="134.743" height="129.819" filterUnits="userSpaceOnUse" color-interpolation-filters="sRGB">
<feFlood flood-opacity="0" result="BackgroundImageFix"/>
<feColorMatrix in="SourceAlpha" type="matrix" values="0 0 0 0 0 0 0 0 0 0 0 0 0 0 0 0 0 0 127 0" result="hardAlpha"/>
<feOffset dy="11"/>
<feGaussianBlur stdDeviation="11"/>
<feColorMatrix type="matrix" values="0 0 0 0 0.397708 0 0 0 0 0.47749 0 0 0 0 0.575 0 0 0 0.18 0"/>
<feBlend mode="normal" in2="BackgroundImageFix" result="effect1_dropShadow_510_4203"/>
<feBlend mode="normal" in="SourceGraphic" in2="effect1_dropShadow_510_4203" result="shape"/>
</filter>
<filter id="filter1_d_510_4203" x="30.7891" y="0.515137" width="73.6479" height="83.123" filterUnits="userSpaceOnUse" color-interpolation-filters="sRGB">
<feFlood flood-opacity="0" result="BackgroundImageFix"/>
<feColorMatrix in="SourceAlpha" type="matrix" values="0 0 0 0 0 0 0 0 0 0 0 0 0 0 0 0 0 0 127 0" result="hardAlpha"/>
<feOffset dy="1"/>
<feGaussianBlur stdDeviation="11"/>
<feColorMatrix type="matrix" values="0 0 0 0 0.397708 0 0 0 0 0.47749 0 0 0 0 0.575 0 0 0 0.18 0"/>
<feBlend mode="normal" in2="BackgroundImageFix" result="effect1_dropShadow_510_4203"/>
<feBlend mode="normal" in="SourceGraphic" in2="effect1_dropShadow_510_4203" result="shape"/>
</filter>
<filter id="filter2_d_510_4203" x="21.7891" y="8.823" width="91.7539" height="83.123" filterUnits="userSpaceOnUse" color-interpolation-filters="sRGB">
<feFlood flood-opacity="0" result="BackgroundImageFix"/>
<feColorMatrix in="SourceAlpha" type="matrix" values="0 0 0 0 0 0 0 0 0 0 0 0 0 0 0 0 0 0 127 0" result="hardAlpha"/>
<feOffset dy="1"/>
<feGaussianBlur stdDeviation="11"/>
<feColorMatrix type="matrix" values="0 0 0 0 0.397708 0 0 0 0 0.47749 0 0 0 0 0.575 0 0 0 0.18 0"/>
<feBlend mode="normal" in2="BackgroundImageFix" result="effect1_dropShadow_510_4203"/>
<feBlend mode="normal" in="SourceGraphic" in2="effect1_dropShadow_510_4203" result="shape"/>
</filter>
<filter id="filter3_d_510_4203" x="16.7061" y="18.604" width="101.919" height="83.0181" filterUnits="userSpaceOnUse" color-interpolation-filters="sRGB">
<feFlood flood-opacity="0" result="BackgroundImageFix"/>
<feColorMatrix in="SourceAlpha" type="matrix" values="0 0 0 0 0 0 0 0 0 0 0 0 0 0 0 0 0 0 127 0" result="hardAlpha"/>
<feOffset dy="1"/>
<feGaussianBlur stdDeviation="11"/>
<feColorMatrix type="matrix" values="0 0 0 0 0.397708 0 0 0 0 0.47749 0 0 0 0 0.575 0 0 0 0.18 0"/>
<feBlend mode="normal" in2="BackgroundImageFix" result="effect1_dropShadow_510_4203"/>
<feBlend mode="normal" in="SourceGraphic" in2="effect1_dropShadow_510_4203" result="shape"/>
</filter>
<filter id="filter4_d_510_4203" x="11.2012" y="28.0701" width="112.93" height="82.9119" filterUnits="userSpaceOnUse" color-interpolation-filters="sRGB">
<feFlood flood-opacity="0" result="BackgroundImageFix"/>
<feColorMatrix in="SourceAlpha" type="matrix" values="0 0 0 0 0 0 0 0 0 0 0 0 0 0 0 0 0 0 127 0" result="hardAlpha"/>
<feOffset dy="1"/>
<feGaussianBlur stdDeviation="11"/>
<feColorMatrix type="matrix" values="0 0 0 0 0.397708 0 0 0 0 0.47749 0 0 0 0 0.575 0 0 0 0.18 0"/>
<feBlend mode="normal" in2="BackgroundImageFix" result="effect1_dropShadow_510_4203"/>
<feBlend mode="normal" in="SourceGraphic" in2="effect1_dropShadow_510_4203" result="shape"/>
</filter>
<filter id="filter5_d_510_4203" x="0.187988" y="23.481" width="134.743" height="94.4819" filterUnits="userSpaceOnUse" color-interpolation-filters="sRGB">
<feFlood flood-opacity="0" result="BackgroundImageFix"/>
<feColorMatrix in="SourceAlpha" type="matrix" values="0 0 0 0 0 0 0 0 0 0 0 0 0 0 0 0 0 0 127 0" result="hardAlpha"/>
<feOffset dy="-14"/>
<feGaussianBlur stdDeviation="11"/>
<feColorMatrix type="matrix" values="0 0 0 0 0.397708 0 0 0 0 0.47749 0 0 0 0 0.575 0 0 0 0.18 0"/>
<feBlend mode="normal" in2="BackgroundImageFix" result="effect1_dropShadow_510_4203"/>
<feBlend mode="normal" in="SourceGraphic" in2="effect1_dropShadow_510_4203" result="shape"/>
</filter>
<filter id="filter6_d_510_4203" x="81.8643" y="12.9629" width="54.1357" height="54.0979" filterUnits="userSpaceOnUse" color-interpolation-filters="sRGB">
<feFlood flood-opacity="0" result="BackgroundImageFix"/>
<feColorMatrix in="SourceAlpha" type="matrix" values="0 0 0 0 0 0 0 0 0 0 0 0 0 0 0 0 0 0 127 0" result="hardAlpha"/>
<feOffset dy="5"/>
<feGaussianBlur stdDeviation="4"/>
<feColorMatrix type="matrix" values="0 0 0 0 0.1125 0 0 0 0 0.295916 0 0 0 0 1 0 0 0 0.22 0"/>
<feBlend mode="normal" in2="BackgroundImageFix" result="effect1_dropShadow_510_4203"/>
<feBlend mode="normal" in="SourceGraphic" in2="effect1_dropShadow_510_4203" result="shape"/>
</filter>
<filter id="filter7_d_510_4203" x="8.78809" y="88.6631" width="53.9072" height="42.7129" filterUnits="userSpaceOnUse" color-interpolation-filters="sRGB">
<feFlood flood-opacity="0" result="BackgroundImageFix"/>
<feColorMatrix in="SourceAlpha" type="matrix" values="0 0 0 0 0 0 0 0 0 0 0 0 0 0 0 0 0 0 127 0" result="hardAlpha"/>
<feOffset dy="5"/>
<feGaussianBlur stdDeviation="4"/>
<feColorMatrix type="matrix" values="0 0 0 0 0.968627 0 0 0 0 0.254902 0 0 0 0 0.564706 0 0 0 0.3 0"/>
<feBlend mode="normal" in2="BackgroundImageFix" result="effect1_dropShadow_510_4203"/>
<feBlend mode="normal" in="SourceGraphic" in2="effect1_dropShadow_510_4203" result="shape"/>
</filter>
<linearGradient id="paint0_linear_510_4203" x1="110.694" y1="37.355" x2="121.719" y2="48.42" gradientUnits="userSpaceOnUse">
<stop stop-color="#4F6AFF"/>
<stop offset="1" stop-color="#657EFF" stop-opacity="0"/>
</linearGradient>
<linearGradient id="paint1_linear_510_4203" x1="112.197" y1="45.3629" x2="99.1661" y2="32.285" gradientUnits="userSpaceOnUse">
<stop offset="0.0113208" stop-color="#C2D1FF"/>
<stop offset="1" stop-color="white"/>
</linearGradient>
<linearGradient id="paint2_linear_510_4203" x1="112.616" y1="44.9461" x2="99.5849" y2="31.8681" gradientUnits="userSpaceOnUse">
<stop offset="0.0113208" stop-color="#C2D1FF"/>
<stop offset="1" stop-color="white"/>
</linearGradient>
<linearGradient id="paint3_linear_510_4203" x1="118.099" y1="41.133" x2="108.366" y2="31.365" gradientUnits="userSpaceOnUse">
<stop offset="0.0113208" stop-color="#C2D1FF"/>
<stop offset="1" stop-color="white"/>
</linearGradient>
</defs>
</svg>
