<svg width="123" height="145" viewBox="0 0 123 145" fill="none" xmlns="http://www.w3.org/2000/svg">
<path d="M5.63198 19.8796C7.12298 19.3896 7.93897 17.7796 7.45397 16.2796C6.96997 14.7796 5.36798 13.9595 3.87798 14.4495C2.38698 14.9295 1.57097 16.5496 2.05597 18.0396C2.53997 19.5396 4.14098 20.3596 5.63198 19.8796Z" fill="#EAEEF9"/>
<path d="M11.8277 10.5597C12.8417 10.2297 13.3967 9.13961 13.0667 8.11961C12.7377 7.09961 11.6487 6.53961 10.6347 6.86961C9.62065 7.19961 9.06666 8.29957 9.39566 9.31957C9.72566 10.3396 10.8147 10.8897 11.8277 10.5597Z" fill="#EAEEF9"/>
<path d="M104.878 20.3596C106.637 18.7496 106.76 15.9996 105.153 14.2296C103.545 12.4596 100.816 12.3395 99.0573 13.9495C97.2983 15.5695 97.1753 18.3196 98.7833 20.0896C100.39 21.8496 103.119 21.9796 104.878 20.3596Z" fill="#EAEEF9"/>
<path d="M118.659 12.4496C119.399 11.7696 119.451 10.6096 118.774 9.86963C118.098 9.11963 116.949 9.06963 116.208 9.74963C115.467 10.4296 115.416 11.5896 116.092 12.3296C116.769 13.0796 117.918 13.1296 118.659 12.4496Z" fill="#EAEEF9"/>
<path d="M10.6198 113.89C11.3598 113.21 11.4118 112.05 10.7348 111.31C10.0578 110.56 8.90877 110.51 8.16877 111.19C7.42777 111.87 7.37576 113.03 8.05276 113.77C8.72976 114.52 9.87876 114.57 10.6198 113.89Z" fill="#EAEEF9"/>
<path d="M56.428 119.93C87.592 119.93 112.855 94.5197 112.855 63.1697C112.855 31.8297 87.592 6.41968 56.428 6.41968C25.264 6.41968 0 31.8297 0 63.1697C0 94.5197 25.264 119.93 56.428 119.93Z" fill="#EAEEF9"/>
<path d="M21.6856 55.9795L14.3056 24.4595C13.7376 22.0595 15.2136 19.7795 17.4846 19.2095L66.1916 7.55957L93.7806 26.3995L111.039 95.7195C111.607 98.1195 110.131 100.399 107.86 100.969L40.6456 116.959C38.2616 117.529 35.9906 116.04 35.4226 113.76L21.1176 53.5795" fill="white"/>
<path d="M106.724 53.8097L80.724 120.27C79.816 122.55 77.318 123.58 75.048 122.67L11.126 96.3997C8.85598 95.4897 7.83398 92.9796 8.74198 90.6896L43.144 5.72967C44.052 3.44967 46.55 2.41965 48.821 3.32965L95.257 22.3997L106.724 53.8097Z" fill="white"/>
<path d="M95.1439 22.3997L87.7639 40.6697C86.7419 43.1897 88.1039 46.2697 90.6019 47.2997L106.724 53.8097" fill="white"/>
<g filter="url(#filter0_d_510_4233)">
<path d="M100.026 107.48C100.026 109.88 98.0962 111.82 95.7112 111.82H26.6812C24.2972 111.82 22.3672 109.88 22.3672 107.48V15.6697C22.3672 13.2697 24.2972 11.3296 26.6812 11.3296H76.7512L99.2312 36.1096L99.6852 77.6697L100.026 107.48Z" fill="white"/>
</g>
<path d="M87.3101 85.5496H45.8691C45.1881 85.5496 44.6201 84.9796 44.6201 84.2996C44.6201 83.6096 45.1881 83.0396 45.8691 83.0396H87.3101C87.9911 83.0396 88.5591 83.6096 88.5591 84.2996C88.4451 84.9796 87.9911 85.5496 87.3101 85.5496Z" fill="#E3EAF2"/>
<path d="M40.7601 85.5496H33.4931C32.8121 85.5496 32.2441 84.9796 32.2441 84.2996C32.2441 83.6096 32.8121 83.0396 33.4931 83.0396H40.7601C41.4411 83.0396 42.0091 83.6096 42.0091 84.2996C42.0091 84.9796 41.4411 85.5496 40.7601 85.5496Z" fill="url(#paint0_linear_510_4233)"/>
<path d="M87.1964 74.2498H68.6904C68.0084 74.2498 67.4414 73.6797 67.4414 72.9897C67.4414 72.3097 68.0084 71.7397 68.6904 71.7397H87.1964C87.8774 71.7397 88.4454 72.3097 88.4454 72.9897C88.3314 73.7897 87.8774 74.2498 87.1964 74.2498Z" fill="#E3EAF2"/>
<path d="M60.856 74.2498H33.834C33.153 74.2498 32.585 73.6797 32.585 72.9897C32.585 72.3097 33.153 71.7397 33.834 71.7397H60.856C61.537 71.7397 62.104 72.3097 62.104 72.9897C62.104 73.7897 61.537 74.2498 60.856 74.2498Z" fill="#E3EAF2"/>
<path d="M87.5368 63.0596H80.3838C79.7028 63.0596 79.1348 62.4896 79.1348 61.7996C79.1348 61.1196 79.7028 60.5396 80.3838 60.5396H87.5368C88.2178 60.5396 88.7858 61.1196 88.7858 61.7996C88.7858 62.4896 88.2178 63.0596 87.5368 63.0596Z" fill="url(#paint1_linear_510_4233)"/>
<path d="M73.6848 63.0596H34.1738C33.4928 63.0596 32.9258 62.4896 32.9258 61.7996C32.9258 61.1196 33.4928 60.5396 34.1738 60.5396H73.6848C74.3658 60.5396 74.9338 61.1196 74.9338 61.7996C74.9338 62.4896 74.3658 63.0596 73.6848 63.0596Z" fill="#E3EAF2"/>
<path d="M55.9736 97.8896H53.4756C52.7936 97.8896 52.2266 97.3196 52.2266 96.6296C52.2266 95.9496 52.7936 95.3696 53.4756 95.3696H55.9736C56.6546 95.3696 57.2216 95.9496 57.2216 96.6296C57.1086 97.3196 56.5406 97.8896 55.9736 97.8896Z" fill="#E3EAF2"/>
<path d="M48.9338 97.8896H34.1738C33.4928 97.8896 32.9258 97.3196 32.9258 96.6296C32.9258 95.9496 33.4928 95.3696 34.1738 95.3696H48.8208C49.5018 95.3696 50.0698 95.9496 50.0698 96.6296C50.1828 97.3196 49.6148 97.8896 48.9338 97.8896Z" fill="#E3EAF2"/>
<path d="M87.8773 51.8696H62.4453C61.7643 51.8696 61.1963 51.2896 61.1963 50.6096C61.1963 49.9196 61.7643 49.3496 62.4453 49.3496H87.8773C88.5583 49.3496 89.1263 49.9196 89.1263 50.6096C89.1263 51.2896 88.5583 51.8696 87.8773 51.8696Z" fill="#E3EAF2"/>
<path d="M54.2706 51.8696H34.5146C33.8336 51.8696 33.2656 51.2896 33.2656 50.6096C33.2656 49.9196 33.8336 49.3496 34.5146 49.3496H54.1566C54.8376 49.3496 55.4056 49.9196 55.4056 50.6096C55.4056 51.2896 54.9516 51.8696 54.2706 51.8696Z" fill="#E3EAF2"/>
<path d="M68.1219 26.5096H34.9689C34.0609 26.5096 33.3799 25.8297 33.3799 24.9197C33.3799 23.9997 34.0609 23.3196 34.9689 23.3196H68.1219C69.0299 23.3196 69.7109 23.9997 69.7109 24.9197C69.7109 25.7097 68.9169 26.5096 68.1219 26.5096Z" fill="#1C3754"/>
<path d="M47.5719 34.5095H34.9689C34.0609 34.5095 33.3799 33.8195 33.3799 32.9095C33.3799 31.9995 34.0609 31.3096 34.9689 31.3096H47.6849C48.5939 31.3096 49.2749 31.9995 49.2749 32.9095C49.1609 33.7095 48.4799 34.5095 47.5719 34.5095Z" fill="#1C3754"/>
<path d="M76.751 11.3296V30.9696C76.751 33.7096 79.135 35.9896 81.86 35.9896H99.231" fill="#EAEEF9"/>
<g filter="url(#filter1_d_510_4233)">
<path d="M113.764 98.1196C113.764 100.86 113.31 103.37 112.288 105.77C110.017 111.71 105.135 116.27 99.1173 118.33C97.0743 119.01 94.9173 119.36 92.6463 119.36C80.9523 119.36 71.5283 109.88 71.5283 98.1196C71.5283 86.3496 80.9523 76.8796 92.6463 76.8796C104.34 76.8796 113.764 86.4696 113.764 98.1196Z" fill="#0062FF"/>
<path d="M100.417 107.037L95.7236 102.348L96.8 101.277L101.489 105.966L100.417 107.037Z" fill="#12C6FF"/>
<path d="M102.048 108.688L98.4501 105.089C98.1494 104.792 98.1494 104.302 98.4501 104C98.7502 103.697 99.2403 103.697 99.5404 104L103.139 107.599C103.44 107.902 103.44 108.386 103.139 108.688C102.839 108.991 102.349 108.991 102.048 108.688Z" fill="#12C6FF"/>
<path d="M101.792 108.918L97.1628 104.29C97.0551 104.181 97.0551 104.006 97.1628 103.897L98.3462 102.711C98.4539 102.608 98.6281 102.608 98.7395 102.711L103.369 107.345C103.477 107.448 103.477 107.624 103.369 107.739L102.186 108.918C102.074 109.027 101.9 109.027 101.792 108.918Z" fill="#E9ECF2"/>
<path d="M90.412 87.2407C85.4999 87.2407 81.5195 91.2217 81.5195 96.1344C81.5195 101.041 85.4999 105.022 90.4084 105.022C95.3199 105.022 99.3002 101.047 99.3002 96.1344C99.3002 91.2217 95.3198 87.2407 90.412 87.2407ZM90.412 103.376C86.4685 103.376 83.2741 100.134 83.2741 96.1283C83.2741 92.1232 86.4685 88.8863 90.412 88.8863C94.3555 88.8863 97.5493 92.1292 97.5493 96.1344C97.5493 100.134 94.3518 103.376 90.412 103.376Z" fill="#E9ECF2"/>
</g>
<defs>
<filter id="filter0_d_510_4233" x="0.367188" y="0.32959" width="121.659" height="144.49" filterUnits="userSpaceOnUse" color-interpolation-filters="sRGB">
<feFlood flood-opacity="0" result="BackgroundImageFix"/>
<feColorMatrix in="SourceAlpha" type="matrix" values="0 0 0 0 0 0 0 0 0 0 0 0 0 0 0 0 0 0 127 0" result="hardAlpha"/>
<feOffset dy="11"/>
<feGaussianBlur stdDeviation="11"/>
<feColorMatrix type="matrix" values="0 0 0 0 0.397708 0 0 0 0 0.47749 0 0 0 0 0.575 0 0 0 0.18 0"/>
<feBlend mode="normal" in2="BackgroundImageFix" result="effect1_dropShadow_510_4233"/>
<feBlend mode="normal" in="SourceGraphic" in2="effect1_dropShadow_510_4233" result="shape"/>
</filter>
<filter id="filter1_d_510_4233" x="63.5283" y="73.8796" width="58.2363" height="58.48" filterUnits="userSpaceOnUse" color-interpolation-filters="sRGB">
<feFlood flood-opacity="0" result="BackgroundImageFix"/>
<feColorMatrix in="SourceAlpha" type="matrix" values="0 0 0 0 0 0 0 0 0 0 0 0 0 0 0 0 0 0 127 0" result="hardAlpha"/>
<feOffset dy="5"/>
<feGaussianBlur stdDeviation="4"/>
<feColorMatrix type="matrix" values="0 0 0 0 0.1125 0 0 0 0 0.295916 0 0 0 0 1 0 0 0 0.22 0"/>
<feBlend mode="normal" in2="BackgroundImageFix" result="effect1_dropShadow_510_4233"/>
<feBlend mode="normal" in="SourceGraphic" in2="effect1_dropShadow_510_4233" result="shape"/>
</filter>
<linearGradient id="paint0_linear_510_4233" x1="32.2691" y1="84.2996" x2="41.9831" y2="84.2996" gradientUnits="userSpaceOnUse">
<stop stop-color="#FF66A9"/>
<stop offset="1" stop-color="#F53689"/>
</linearGradient>
<linearGradient id="paint1_linear_510_4233" x1="79.1388" y1="61.8296" x2="88.7468" y2="61.8296" gradientUnits="userSpaceOnUse">
<stop stop-color="#FF66A9"/>
<stop offset="1" stop-color="#F53689"/>
</linearGradient>
</defs>
</svg>
