<svg width="120" height="112" viewBox="0 0 120 112" fill="none" xmlns="http://www.w3.org/2000/svg">
<path d="M112.408 62.609C112.408 80.696 102.651 96.596 88.1139 105.143C88.1139 105.143 88.0149 105.242 87.9149 105.242C86.9199 105.839 85.9239 106.335 84.9279 106.832C84.4309 107.13 83.9329 107.329 83.4349 107.528C83.2359 107.627 83.0369 107.727 82.8379 107.826H82.7379C82.5389 107.925 82.2399 108.025 82.0409 108.124C80.5479 108.82 78.9539 109.317 77.3609 109.814C77.1619 109.913 76.8639 110.012 76.6649 110.012C76.5649 110.012 76.4649 110.112 76.3659 110.112C76.2659 110.112 76.1669 110.112 76.1669 110.211C76.0669 110.211 75.9679 110.211 75.8679 110.311C73.7769 110.907 71.5869 111.304 69.2969 111.603C67.2059 111.901 65.1149 112 63.0239 112C59.6389 112 56.3529 111.702 53.1669 111.006C52.9679 111.006 52.7689 110.907 52.5699 110.907C51.8729 110.807 51.1759 110.609 50.4789 110.41C49.7819 110.211 49.0849 110.012 48.3879 109.814C45.5999 108.919 42.8129 107.826 40.2239 106.534C24.2939 98.286 13.4409 81.689 13.4409 62.609C13.4409 35.28 35.6439 13.217 62.9249 13.217C90.3049 13.217 112.408 35.28 112.408 62.609Z" fill="#EAEEF9"/>
<path d="M58.6428 40.149C53.8638 36.273 51.3748 29.814 52.2708 23.752C53.2668 16.894 58.1458 15.602 60.6348 16.696C62.4268 17.491 63.5218 19.876 62.5258 21.665C60.8338 24.845 54.3618 23.553 53.0678 18.087C52.5698 16.099 53.0678 13.913 54.2628 12.224C56.2538 9.54 59.9378 8.54699 63.2228 8.04999C64.0198 8.04999 64.8158 7.95001 65.5128 7.85101C67.3048 7.65201 69.4958 7.35403 71.7858 7.05603" stroke="#D5DAE8" stroke-miterlimit="10" stroke-linecap="round" stroke-linejoin="round"/>
<path d="M76.7637 8.24799L73.6777 9.64001L74.1747 4.37299" fill="#D5DAE8"/>
<path d="M96.577 1.789L95.183 2.58398L79.054 11.627L74.872 5.466L74.175 4.37299L71.188 0L93.989 1.59003L96.577 1.789Z" fill="#EAEEF9"/>
<path d="M96.5768 1.789L95.1828 2.58398L74.8718 5.466L74.1748 4.37299L93.9888 1.59003L96.5768 1.789Z" fill="#D5DAE8"/>
<path d="M15.201 33.6599C16.509 33.2359 17.224 31.834 16.799 30.529C16.374 29.225 14.97 28.511 13.663 28.935C12.355 29.359 11.64 30.76 12.065 32.065C12.49 33.37 13.894 34.0839 15.201 33.6599Z" fill="#EAEEF9"/>
<path d="M20.6353 25.554C21.5243 25.266 22.0103 24.312 21.7213 23.425C21.4323 22.538 20.4783 22.052 19.5893 22.341C18.7003 22.629 18.2133 23.582 18.5023 24.47C18.7913 25.357 19.7463 25.842 20.6353 25.554Z" fill="#EAEEF9"/>
<path d="M41.0858 13.885C42.6288 12.478 42.7358 10.089 41.3268 8.54903C39.9168 7.01003 37.5238 6.90204 35.9808 8.30904C34.4388 9.71604 34.3308 12.105 35.7408 13.644C37.1498 15.184 39.5438 15.292 41.0858 13.885Z" fill="#EAEEF9"/>
<path d="M118.824 33.261C119.473 32.668 119.519 31.662 118.925 31.014C118.332 30.366 117.324 30.321 116.675 30.913C116.025 31.505 115.98 32.511 116.573 33.159C117.167 33.808 118.175 33.853 118.824 33.261Z" fill="#EAEEF9"/>
<path d="M77.8589 82.783V110.112C77.6599 110.211 77.4609 110.211 77.2619 110.311C74.9719 110.907 72.5819 111.404 70.1929 111.702V82.783H77.8589Z" fill="#4988FD"/>
<path d="M77.8589 82.783V110.112C77.6599 110.211 77.4609 110.211 77.2619 110.311C74.9719 110.907 72.5819 111.404 70.1929 111.702V82.783H77.8589Z" fill="white"/>
<path d="M84.9283 82.783V106.932C84.4313 107.23 83.9333 107.429 83.4353 107.627C83.2363 107.727 83.0373 107.826 82.8373 107.925H82.7383C82.5393 108.025 82.2403 108.124 82.0413 108.224C80.5483 108.919 78.9543 109.416 77.3613 109.913V82.783H84.9283Z" fill="#2767F4"/>
<path d="M84.9283 82.783V106.932C84.4313 107.23 83.9333 107.429 83.4353 107.627C83.2363 107.727 83.0373 107.826 82.8373 107.925H82.7383C82.5393 108.025 82.2403 108.124 82.0413 108.224C80.5483 108.919 78.9543 109.416 77.3613 109.913V82.783H84.9283Z" fill="#D5DAE8"/>
<path opacity="0.1" d="M84.9283 93.217V105.242C84.5303 105.441 84.1323 105.64 83.7343 105.839C83.5343 105.938 83.3353 106.037 83.1363 106.137H83.0373C82.8373 106.236 82.5393 106.335 82.3403 106.435C80.8463 107.13 79.2533 107.627 77.6603 108.124C77.5613 108.124 77.4613 108.224 77.3613 108.224V105.64C77.4613 105.342 77.5613 105.043 77.6603 104.745C79.1543 100.87 81.0453 97.789 83.2363 95.205C83.7343 94.509 84.3313 93.814 84.9283 93.217Z" fill="#062C78"/>
<path opacity="0.1" d="M84.9279 82.783H70.1929V91.329H84.9279V82.783Z" fill="#062C78"/>
<path d="M116.192 52.571V83.18H92.2962V83.279H44.4062V28.323H89.9072C90.5042 28.224 91.1012 28.224 91.7982 28.224C92.5952 28.224 93.2922 28.224 94.0882 28.323C95.0842 28.422 95.9803 28.522 96.8763 28.72C101.556 29.714 105.737 32.099 109.023 35.279C113.503 39.752 116.192 45.913 116.192 52.571Z" fill="url(#paint0_linear_510_4268)"/>
<path d="M96.8759 28.82V51.578C96.8759 52.373 96.2789 52.969 95.4819 52.969C94.6859 52.969 94.0879 52.373 94.0879 51.578V28.323C94.9839 28.422 95.9799 28.621 96.8759 28.82Z" fill="url(#paint1_linear_510_4268)"/>
<path d="M95.9799 59.727C99.0039 59.727 101.456 57.28 101.456 54.261C101.456 51.242 99.0039 48.795 95.9799 48.795C92.9559 48.795 90.5039 51.242 90.5039 54.261C90.5039 57.28 92.9559 59.727 95.9799 59.727Z" fill="#5C71FF"/>
<path d="M96.8762 59.031C100.01 59.031 102.551 56.584 102.551 53.565C102.551 50.547 100.01 48.099 96.8762 48.099C93.7422 48.099 91.2012 50.547 91.2012 53.565C91.2012 56.584 93.7422 59.031 96.8762 59.031Z" fill="#D5DAE8"/>
<path d="M97.1752 59.031C100.199 59.031 102.651 56.584 102.651 53.565C102.651 50.547 100.199 48.099 97.1752 48.099C94.1502 48.099 91.6992 50.547 91.6992 53.565C91.6992 56.584 94.1502 59.031 97.1752 59.031Z" fill="#EAEEF9"/>
<path d="M97.175 55.652C98.33 55.652 99.266 54.718 99.266 53.565C99.266 52.413 98.33 51.478 97.175 51.478C96.02 51.478 95.084 52.413 95.084 53.565C95.084 54.718 96.02 55.652 97.175 55.652Z" fill="#D5DAE8"/>
<path d="M68.202 50.186V83.28H19.415V50.186C19.415 39.752 26.783 31.006 36.54 28.82C38.133 28.422 39.7261 28.323 41.4191 28.323H46.397C57.349 28.323 66.409 36.273 68.1021 46.807C68.1021 47.801 68.202 48.994 68.202 50.186Z" fill="url(#paint2_linear_510_4268)"/>
<path d="M98.768 27.031V53.366C98.768 54.161 98.17 54.758 97.374 54.758C96.577 54.758 95.98 54.161 95.98 53.366V27.031H98.768Z" fill="white"/>
<path d="M60.4359 69.267C60.4359 71.354 58.7429 73.044 56.6519 73.044C17.6229 73.044 20.1119 73.242 18.8179 72.447C17.7219 71.752 17.0259 70.559 17.0259 69.267C19.3149 43.329 18.9169 43.627 20.5099 42.137C22.0039 40.845 19.9129 41.242 58.7429 41.242C59.9379 41.242 61.0329 41.839 61.7299 42.634C63.0239 44.323 62.7259 43.727 60.4359 69.267Z" fill="white"/>
<path d="M62.1279 43.23C42.4139 59.925 42.9119 60.224 40.0249 60.224C36.9379 60.224 37.2369 59.826 19.7139 43.23C21.2069 40.447 20.3109 41.242 58.8429 41.242C60.2359 41.242 61.5309 42.037 62.1279 43.23Z" fill="#EAEEF9"/>
<path d="M14.6362 48.696H1.69316C1.09516 48.696 0.597168 48.199 0.597168 47.602C0.597168 47.006 1.09516 46.509 1.69316 46.509H14.6362C15.2332 46.509 15.7312 47.006 15.7312 47.602C15.7312 48.199 15.2332 48.696 14.6362 48.696Z" fill="url(#paint3_linear_510_4268)"/>
<path d="M14.0391 54.857H6.57108C5.97408 54.857 5.47607 54.36 5.47607 53.764C5.47607 53.168 5.97408 52.671 6.57108 52.671H14.0391C14.6361 52.671 15.1341 53.168 15.1341 53.764C15.1341 54.36 14.6361 54.857 14.0391 54.857Z" fill="url(#paint4_linear_510_4268)"/>
<path d="M13.3419 60.721H9.15994C8.56294 60.721 8.06494 60.224 8.06494 59.627C8.06494 59.031 8.56294 58.534 9.15994 58.534H13.4409C14.0389 58.534 14.5359 59.031 14.5359 59.627C14.5359 60.224 14.0389 60.721 13.3419 60.721Z" fill="url(#paint5_linear_510_4268)"/>
<path d="M54.7601 60.422H50.2801C49.9811 60.422 49.7821 60.621 49.7821 60.919L49.6831 61.516L49.4831 63.106L49.3841 64.199L49.1851 65.391C49.1851 65.491 49.1851 65.59 49.1851 65.689C49.2841 65.888 49.4831 66.087 49.6831 66.087H54.1631C54.4621 66.087 54.6611 65.888 54.6611 65.59L55.2581 61.118C55.3581 60.721 55.1591 60.422 54.7601 60.422ZM53.6651 64.497C53.6651 64.596 53.5661 64.795 53.3661 64.795H51.1761H50.8771C50.6781 64.795 50.5791 64.596 50.5791 64.497L50.6781 63.702L50.7781 62.609L50.8771 62.112C50.8771 62.012 50.9771 61.814 51.1761 61.814H53.6651C53.8641 61.814 53.9641 62.012 53.9641 62.112L53.6651 64.497Z" fill="url(#paint6_linear_510_4268)"/>
<path d="M51.1763 61.714C50.9773 61.714 50.8773 61.814 50.8773 62.012L50.7783 62.5089C50.2803 62.8069 49.8823 63.006 49.4833 63.106C49.1853 63.205 48.8863 63.205 48.5873 63.205C47.6913 63.205 46.9943 62.907 46.3973 62.609C45.5013 62.211 45.3023 62.2109 45.0033 62.5089C44.7043 62.8069 44.3063 62.807 44.0073 62.609C43.7093 62.311 43.7093 61.913 43.9083 61.615C44.9033 60.422 46.0983 60.919 46.9943 61.317C47.8903 61.714 48.5873 62.112 49.6833 61.516C49.7823 61.416 49.9813 61.416 50.0813 61.317C50.3803 61.118 50.8773 61.217 51.0763 61.516C51.1763 61.516 51.1763 61.615 51.1763 61.714Z" fill="url(#paint7_linear_510_4268)"/>
<path d="M51.1759 64.696L51.0759 64.795C50.3799 65.292 49.7819 65.491 49.2839 65.59C49.0849 65.59 48.8859 65.59 48.7869 65.59C47.8899 65.59 47.1929 65.292 46.5959 64.994C45.6999 64.596 45.5009 64.596 45.2019 64.894C44.9029 65.193 44.5049 65.193 44.2069 64.994C43.9079 64.696 43.9079 64.298 44.1069 64C45.1029 62.807 46.2969 63.304 47.0939 63.702C47.7909 64 48.4879 64.298 49.2839 64.099C49.5829 64 49.7819 63.901 50.1799 63.702C50.2799 63.602 50.4789 63.602 50.6779 63.602L50.5789 64.398C50.5789 64.596 50.6779 64.696 50.8769 64.696H51.1759Z" fill="url(#paint8_linear_510_4268)"/>
<path opacity="0.5" d="M68.2021 54.758L67.9031 46.708C66.2101 36.273 57.1501 28.224 46.1981 28.224H41.2201C39.5271 28.224 37.9341 28.422 36.3411 28.72L35.7441 29.217L48.0901 79.901L68.1021 80.994V54.758H68.2021Z" fill="url(#paint9_linear_510_4268)"/>
<path d="M112.209 26.137C112.607 26.435 112.408 27.13 111.811 27.13H98.8669H95.8799V16.298H111.811C112.309 16.298 112.607 16.894 112.209 17.292L108.027 20.77C107.43 21.267 107.43 22.161 108.027 22.658L112.209 26.137Z" fill="url(#paint10_linear_510_4268)"/>
<path d="M56.7518 101.963C55.3578 104.05 53.6648 107.429 52.6698 110.311C52.5698 110.509 52.4698 110.807 52.4698 111.006C51.7728 110.907 51.0768 110.708 50.3798 110.509C49.7818 109.118 49.3838 107.627 49.3838 107.627C49.7818 107.13 50.0808 106.733 50.4788 106.335C52.3708 103.95 54.3618 102.36 56.7518 101.963Z" fill="#B6BED6"/>
<path d="M53.068 111.106C52.869 111.106 52.67 111.006 52.47 111.006C51.773 110.907 51.076 110.708 50.3801 110.509C49.8821 110.41 49.483 110.211 48.986 110.112C48.787 110.012 48.587 110.012 48.388 109.913C48.189 109.814 47.99 109.814 47.691 109.714C45.103 108.919 42.614 107.826 40.224 106.634C37.735 102.46 36.341 97.292 33.951 90.236C33.951 90.137 33.9511 90.137 33.8521 90.037C33.8521 90.037 34.051 90.037 34.549 90.236C34.848 90.435 35.345 90.634 35.943 91.031C37.137 91.826 39.029 93.217 41.817 95.503C45.302 98.385 48.2891 102.658 50.3801 106.236C51.2761 107.826 52.072 109.217 52.67 110.311C52.869 110.509 52.968 110.807 53.068 111.106Z" fill="#D5DAE8"/>
<path d="M48.986 110.012C48.787 109.913 48.587 109.913 48.388 109.814C48.189 109.714 47.99 109.714 47.691 109.615C43.111 100.373 37.9341 94.509 34.8481 91.13C34.5491 90.733 34.25 90.435 33.951 90.137C33.951 90.037 33.9511 90.037 33.8521 89.938C33.8521 89.938 34.051 89.938 34.549 90.137C34.848 90.335 35.345 90.534 35.943 90.932C39.129 94.509 44.406 100.571 48.986 110.012Z" fill="#EAEEF9"/>
<path d="M77.8591 110.112C77.9591 110.112 77.9592 110.112 78.0582 110.112C77.9592 110.112 77.7602 110.211 77.6602 110.211C77.6602 110.112 77.7601 110.112 77.8591 110.112Z" fill="#D5DAE8"/>
<path d="M78.158 110.013C78.258 110.013 78.258 110.013 78.357 109.913C78.258 109.913 78.058 110.013 77.959 110.013C78.058 110.013 78.058 110.013 78.158 110.013Z" fill="#D5DAE8"/>
<path d="M95.582 88.248C95.582 88.248 95.482 88.447 95.283 88.845C94.088 91.031 90.006 98.584 88.114 105.044C88.114 105.044 88.015 105.143 87.915 105.143C86.92 105.739 85.924 106.236 84.928 106.733C84.431 107.031 83.933 107.23 83.435 107.429C83.236 107.528 83.037 107.627 82.838 107.727H82.738C82.539 107.826 82.24 107.925 82.041 108.025C80.548 108.721 78.955 109.217 77.362 109.714C77.162 109.814 76.864 109.913 76.665 109.913C76.565 109.913 76.465 110.012 76.366 110.012C76.266 110.012 76.167 110.012 76.167 110.112C76.565 108.82 76.963 107.528 77.461 106.435C78.955 102.559 80.846 99.478 83.037 96.894C83.734 96.099 84.431 95.304 85.128 94.609C88.015 91.727 91.101 89.839 93.989 88.845C94.387 88.646 94.984 88.447 95.582 88.248Z" fill="#D5DAE8"/>
<path d="M95.582 88.248C95.582 88.248 95.482 88.447 95.283 88.845C91.5 92.124 88.015 97.292 84.928 103.95C84.43 105.143 83.933 106.236 83.435 107.528C83.236 107.627 83.037 107.727 82.837 107.826H82.738C82.539 107.925 82.24 108.025 82.041 108.124C82.141 107.925 82.24 107.826 82.24 107.826C83.136 105.64 84.032 103.553 84.928 101.665C87.617 96.199 90.603 91.826 93.79 88.845C94.387 88.646 94.984 88.447 95.582 88.248Z" fill="#EAEEF9"/>
<path d="M81.8418 110.211C81.6428 110.708 81.5428 111.205 81.3438 111.702" stroke="white" stroke-miterlimit="10"/>
<path d="M68.202 46.708C66.509 36.273 57.249 28.224 46.297 28.224H41.319C39.627 28.224 38.034 28.422 36.441 28.721C29.471 30.311 23.796 35.18 21.008 41.54C21.307 41.342 21.805 41.242 22.8 41.143C25.488 35.677 30.566 31.503 36.739 30.112C38.133 29.814 39.726 29.615 41.22 29.615H46.198C56.353 29.615 64.816 36.87 66.409 46.807C66.609 47.801 66.708 48.894 66.708 49.988V81.59H20.909V72.845C20.112 72.845 19.714 72.745 19.415 72.646V83.081H68.5V50.186C68.5 48.994 68.401 47.801 68.202 46.708Z" fill="#96A7FF"/>
<path d="M68.5 79.801V83.28H1.79201C0.797007 83.28 0 82.484 0 81.59C0 80.596 0.797007 79.801 1.79201 79.801H68.5Z" fill="#5B8DFF"/>
<defs>
<linearGradient id="paint0_linear_510_4268" x1="44.4132" y1="55.783" x2="116.209" y2="55.783" gradientUnits="userSpaceOnUse">
<stop stop-color="#83ADFF"/>
<stop offset="1" stop-color="#3D73FF"/>
</linearGradient>
<linearGradient id="paint1_linear_510_4268" x1="95.4749" y1="49.552" x2="95.4749" y2="36.374" gradientUnits="userSpaceOnUse">
<stop stop-color="#4F6AFF"/>
<stop offset="1" stop-color="#657EFF" stop-opacity="0"/>
</linearGradient>
<linearGradient id="paint2_linear_510_4268" x1="19.383" y1="55.748" x2="68.219" y2="55.748" gradientUnits="userSpaceOnUse">
<stop stop-color="#62A1FF"/>
<stop offset="1" stop-color="#274CD1"/>
</linearGradient>
<linearGradient id="paint3_linear_510_4268" x1="0.599168" y1="47.566" x2="15.7182" y2="47.566" gradientUnits="userSpaceOnUse">
<stop stop-color="#FF66A9"/>
<stop offset="1" stop-color="#F53689"/>
</linearGradient>
<linearGradient id="paint4_linear_510_4268" x1="5.44207" y1="53.763" x2="15.1561" y2="53.763" gradientUnits="userSpaceOnUse">
<stop stop-color="#FF66A9"/>
<stop offset="1" stop-color="#F53689"/>
</linearGradient>
<linearGradient id="paint5_linear_510_4268" x1="8.03694" y1="59.632" x2="14.4899" y2="59.632" gradientUnits="userSpaceOnUse">
<stop stop-color="#FF66A9"/>
<stop offset="1" stop-color="#F53689"/>
</linearGradient>
<linearGradient id="paint6_linear_510_4268" x1="49.1791" y1="63.193" x2="55.3371" y2="63.193" gradientUnits="userSpaceOnUse">
<stop stop-color="#FF66A9"/>
<stop offset="1" stop-color="#F53689"/>
</linearGradient>
<linearGradient id="paint7_linear_510_4268" x1="43.8053" y1="62.035" x2="51.2123" y2="62.035" gradientUnits="userSpaceOnUse">
<stop stop-color="#FF66A9"/>
<stop offset="1" stop-color="#F53689"/>
</linearGradient>
<linearGradient id="paint8_linear_510_4268" x1="43.9039" y1="64.506" x2="51.1749" y2="64.506" gradientUnits="userSpaceOnUse">
<stop stop-color="#FF66A9"/>
<stop offset="1" stop-color="#F53689"/>
</linearGradient>
<linearGradient id="paint9_linear_510_4268" x1="66.9671" y1="54.067" x2="46.3611" y2="55.027" gradientUnits="userSpaceOnUse">
<stop stop-color="#0C1E82"/>
<stop offset="1" stop-color="#001DB5" stop-opacity="0"/>
</linearGradient>
<linearGradient id="paint10_linear_510_4268" x1="95.9869" y1="21.669" x2="112.445" y2="21.669" gradientUnits="userSpaceOnUse">
<stop stop-color="#FF66A9"/>
<stop offset="1" stop-color="#F53689"/>
</linearGradient>
</defs>
</svg>
