<svg width="20" height="20" viewBox="0 0 20 20" fill="none" xmlns="http://www.w3.org/2000/svg">
<path d="M3.30886 9.06109L3.79545 8.97741V9.01069H4.54545H5.15917V14.902H3.8636C2.11742 14.902 0.75 13.5472 0.75 11.9564C0.75 10.5407 1.83235 9.31503 3.30886 9.06109ZM16.2045 9.01069V8.97737L16.6911 9.06108C18.1677 9.31516 19.25 10.5408 19.25 11.9564C19.25 13.3886 18.144 14.6285 16.6451 14.8636L16.3929 14.9032L16.3933 14.902H15.3409H14.8408V9.01069H15.4545H16.2045ZM10.99 17.8979L11.1467 18.2529L10.9976 18.6114C10.8477 18.972 10.4633 19.25 9.99988 19.25C9.38626 19.25 8.93166 18.7683 8.93166 18.2608C8.93166 17.7534 9.38625 17.2717 9.99988 17.2717C10.4506 17.2717 10.8328 17.542 10.99 17.8979Z" stroke="#1D1E25" stroke-width="1.5"/>
</svg>
